 http://www.shotpix.com/images/23955175056370503582.jpeg

Info:

Format : AVI
Format/Info : Audio Video Interleave
File size : 1.48 GiB
Duration : 1h 51mn
Overall bit rate : 1 898 Kbps
Writing library : VirtualDub build 30091/release

Video
ID : 0
Format : MPEG-4 Visual
Format profile : Advanced Simple@L5
Format settings, BVOP : 2
Format settings, QPel : No
Format settings, GMC : No warppoints
Format settings, Matrix : Default (H.263)
Muxing mode : Packed bitstream
Codec ID : XVID
Codec ID/Hint : XviD
Duration : 1h 51mn
Bit rate : 1 696 Kbps
Width : 720 pixels
Height : 304 pixels
Display aspect ratio : 2.35:1
Frame rate : 25.000 fps
Color space : YUV
Chroma subsampling : 4:2:0
Bit depth : 8 bits
Scan type : Progressive
Compression mode : Lossy
Bits/(Pixel*Frame) : 0.310
Stream size : 1.32 GiB (89%)
Writing library : XviD 1.2.1 (UTC 2008-12-04)

Audio
ID : 1
Format : AC-3
Format/Info : Audio Coding 3
Mode extension : CM (complete main)
Format settings, Endianness : Big
Codec ID : 2000
Duration : 1h 51mn
Bit rate mode : Constant
Bit rate : 192 Kbps
Channel(s) : 2 channels
Channel positions : Front: L R
Sampling rate : 48.0 KHz
Bit depth : 16 bits
Compression mode : Lossy
Stream size : 153 MiB (10%)


Screens: 
http://www.shotpix.com/images/59214653150800128299.png 
http://www.shotpix.com/images/00843470302379801509.png 
http://www.shotpix.com/images/92540148718359871135.png 
http://www.shotpix.com/images/81082114332648580369.png




